<?xml version="1.0" encoding="UTF-8"?>
<svg width="75px" height="75px" viewBox="0 0 75 75" version="1.1" xmlns="http://www.w3.org/2000/svg" xmlns:xlink="http://www.w3.org/1999/xlink">
    <!-- Generator: Sketch 61.2 (89653) - https://sketch.com -->
    <title>Scan</title>
    <desc>Created with Sketch.</desc>
    <g id="Landingpage" stroke="none" stroke-width="1" fill="none" fill-rule="evenodd">
        <g id="landing" transform="translate(-683.000000, -763.000000)" fill-rule="nonzero">
            <g id="product" transform="translate(330.000000, 707.000000)">
                <g id="Group-6-Copy-3" transform="translate(270.000000, 0.000000)">
                    <g id="Scan" transform="translate(83.000000, 56.000000)">
                        <rect id="Rectangle" fill="#191B2F" x="0" y="0" width="75" height="75" rx="6"></rect>
                        <path d="M41.486625,9.1325625 L38.775,9.1325625 L38.775,24.31125 C38.925,24.3054375 39.0735,24.2885625 39.225,24.2885625 C45.7142339,24.2886661 50.9747714,29.5492036 50.974875,36.0384375 L50.974875,35.5455 L65.68125,35.5455 L65.68125,33.32775 C64.3903729,20.5380908 54.2762542,10.4237369 41.486625,9.1325625 Z" id="Path" fill="#FFFFFF"></path>
                        <path d="M58.0404375,39.5600625 C57.0440119,49.6098811 48.8599257,57.4270936 38.775,57.961875 L38.775,54.9375 L34.7611875,54.9375 L34.7611875,57.78525 C25.4450438,56.4478735 18.2440027,48.92583 17.3139375,39.56025 L20.247375,39.56025 L20.247375,35.5455 L17.3139375,35.5455 C18.2435806,26.1795145 25.4447027,18.656922 34.7611875,17.319375 L34.7611875,12.7951875 C22.9658894,14.1862365 13.7906623,23.7068695 12.83625,35.5455 L9.31875,35.5455 L9.31875,39.5600625 L12.83625,39.5600625 C13.7908041,51.3986291 22.9659585,60.9191867 34.7611875,62.310375 L34.7611875,65.8674375 L38.775,65.8674375 L38.775,62.4395625 C51.3266516,61.8918919 61.5058941,52.0828285 62.5179375,39.5600625 L58.0404375,39.5600625 Z" id="Path" fill="#FFFFFF"></path>
                        <circle id="Oval" fill="#FFFFFF" cx="37.6771875" cy="37.5526875" r="8.24775"></circle>
                    </g>
                </g>
            </g>
        </g>
    </g>
</svg>